<?xml version="1.0" standalone="no"?>
<!DOCTYPE svg PUBLIC "-//W3C//DTD SVG 20010904//EN"
 "http://www.w3.org/TR/2001/REC-SVG-20010904/DTD/svg10.dtd">
<svg version="1.0" xmlns="http://www.w3.org/2000/svg"
 width="30.000000pt" height="28.000000pt" viewBox="0 0 30.000000 28.000000"
 preserveAspectRatio="xMidYMid meet">

<g transform="translate(0.000000,28.000000) scale(0.100000,-0.100000)"
fill="#000000" stroke="none">
<path d="M73 215 c-33 -33 -35 -39 -30 -81 7 -62 39 -94 101 -101 42 -5 48 -3
81 30 27 27 35 43 35 72 0 71 -41 114 -108 115 -37 0 -50 -6 -79 -35z m117
-22 c23 -20 27 -38 5 -29 -11 4 -15 -2 -15 -20 0 -38 -18 -64 -44 -64 -45 0
-61 50 -24 74 24 14 36 -1 13 -18 -19 -14 -13 -36 11 -36 10 0 14 14 14 55 0
58 8 65 40 38z"/>
</g>
</svg>
